<mxfile host="Electron" modified="2024-02-28T08:34:33.216Z" agent="Mozilla/5.0 (Windows NT 10.0; Win64; x64) AppleWebKit/537.36 (KHTML, like Gecko) draw.io/23.1.5 Chrome/120.0.6099.109 Electron/28.1.0 Safari/537.36" etag="GpWdGE6iUY1InxdfWZCn" version="23.1.5" type="device">
  <diagram name="Страница — 1" id="f5qaqixOcX6vG_OhwR0j">
    <mxGraphModel dx="1444" dy="929" grid="1" gridSize="10" guides="1" tooltips="1" connect="1" arrows="1" fold="1" page="1" pageScale="1" pageWidth="649" pageHeight="1011" math="0" shadow="0">
      <root>
        <mxCell id="0" />
        <mxCell id="1" parent="0" />
        <mxCell id="UDmzE2PKUfRqwM2-v8yh-4" style="edgeStyle=orthogonalEdgeStyle;rounded=0;orthogonalLoop=1;jettySize=auto;html=1;exitX=0.5;exitY=0.5;exitDx=0;exitDy=20;exitPerimeter=0;entryX=0.5;entryY=0;entryDx=0;entryDy=0;endArrow=none;endFill=0;" edge="1" parent="1" source="UDmzE2PKUfRqwM2-v8yh-2" target="UDmzE2PKUfRqwM2-v8yh-3">
          <mxGeometry relative="1" as="geometry" />
        </mxCell>
        <mxCell id="UDmzE2PKUfRqwM2-v8yh-2" value="Начало" style="html=1;dashed=0;whiteSpace=wrap;shape=mxgraph.dfd.start" vertex="1" parent="1">
          <mxGeometry width="120" height="40" as="geometry" />
        </mxCell>
        <mxCell id="UDmzE2PKUfRqwM2-v8yh-6" style="edgeStyle=orthogonalEdgeStyle;rounded=0;orthogonalLoop=1;jettySize=auto;html=1;exitX=0.5;exitY=1;exitDx=0;exitDy=0;entryX=0.5;entryY=0;entryDx=0;entryDy=0;endArrow=none;endFill=0;" edge="1" parent="1" source="UDmzE2PKUfRqwM2-v8yh-3" target="UDmzE2PKUfRqwM2-v8yh-5">
          <mxGeometry relative="1" as="geometry" />
        </mxCell>
        <mxCell id="UDmzE2PKUfRqwM2-v8yh-3" value="Присвоение счетчику кол-ва вызова функция значение = 0" style="rounded=0;whiteSpace=wrap;html=1;" vertex="1" parent="1">
          <mxGeometry y="78" width="120" height="82" as="geometry" />
        </mxCell>
        <mxCell id="UDmzE2PKUfRqwM2-v8yh-7" style="edgeStyle=orthogonalEdgeStyle;rounded=0;orthogonalLoop=1;jettySize=auto;html=1;exitX=0.5;exitY=1;exitDx=0;exitDy=0;endArrow=none;endFill=0;" edge="1" parent="1" source="UDmzE2PKUfRqwM2-v8yh-5">
          <mxGeometry relative="1" as="geometry">
            <mxPoint x="60" y="700" as="targetPoint" />
          </mxGeometry>
        </mxCell>
        <mxCell id="UDmzE2PKUfRqwM2-v8yh-9" value="Да" style="edgeLabel;html=1;align=center;verticalAlign=middle;resizable=0;points=[];fontFamily=Times New Roman;fontSize=14;" vertex="1" connectable="0" parent="UDmzE2PKUfRqwM2-v8yh-7">
          <mxGeometry x="0.1353" y="1" relative="1" as="geometry">
            <mxPoint x="16" as="offset" />
          </mxGeometry>
        </mxCell>
        <mxCell id="UDmzE2PKUfRqwM2-v8yh-11" style="edgeStyle=orthogonalEdgeStyle;rounded=0;orthogonalLoop=1;jettySize=auto;html=1;exitX=1;exitY=0.5;exitDx=0;exitDy=0;entryX=0;entryY=0.5;entryDx=0;entryDy=0;endArrow=none;endFill=0;" edge="1" parent="1" source="UDmzE2PKUfRqwM2-v8yh-5" target="UDmzE2PKUfRqwM2-v8yh-10">
          <mxGeometry relative="1" as="geometry" />
        </mxCell>
        <mxCell id="UDmzE2PKUfRqwM2-v8yh-5" value="Поле ввода&lt;br&gt;пустое" style="rhombus;whiteSpace=wrap;html=1;" vertex="1" parent="1">
          <mxGeometry y="200" width="120" height="80" as="geometry" />
        </mxCell>
        <mxCell id="UDmzE2PKUfRqwM2-v8yh-13" style="edgeStyle=orthogonalEdgeStyle;rounded=0;orthogonalLoop=1;jettySize=auto;html=1;exitX=0.5;exitY=1;exitDx=0;exitDy=0;entryX=0.5;entryY=0;entryDx=0;entryDy=0;endArrow=none;endFill=0;" edge="1" parent="1" source="UDmzE2PKUfRqwM2-v8yh-10" target="UDmzE2PKUfRqwM2-v8yh-12">
          <mxGeometry relative="1" as="geometry" />
        </mxCell>
        <mxCell id="UDmzE2PKUfRqwM2-v8yh-10" value="Присвоение переменной n значения, введенного в поле ввода" style="rounded=0;whiteSpace=wrap;html=1;" vertex="1" parent="1">
          <mxGeometry x="160" y="200" width="120" height="80" as="geometry" />
        </mxCell>
        <mxCell id="UDmzE2PKUfRqwM2-v8yh-16" style="edgeStyle=orthogonalEdgeStyle;rounded=0;orthogonalLoop=1;jettySize=auto;html=1;exitX=1;exitY=0.5;exitDx=0;exitDy=0;endArrow=none;endFill=0;" edge="1" parent="1" source="UDmzE2PKUfRqwM2-v8yh-12">
          <mxGeometry relative="1" as="geometry">
            <mxPoint x="320" y="360.33333333333326" as="targetPoint" />
          </mxGeometry>
        </mxCell>
        <mxCell id="UDmzE2PKUfRqwM2-v8yh-18" value="Да" style="edgeLabel;html=1;align=center;verticalAlign=middle;resizable=0;points=[];fontSize=14;fontFamily=Times New Roman;" vertex="1" connectable="0" parent="UDmzE2PKUfRqwM2-v8yh-16">
          <mxGeometry x="0.1382" y="1" relative="1" as="geometry">
            <mxPoint x="-2" y="-10" as="offset" />
          </mxGeometry>
        </mxCell>
        <mxCell id="UDmzE2PKUfRqwM2-v8yh-12" value="Выбран вариант рекурсии" style="rhombus;whiteSpace=wrap;html=1;spacingLeft=14;spacingRight=14;" vertex="1" parent="1">
          <mxGeometry x="160" y="320" width="120" height="80" as="geometry" />
        </mxCell>
        <mxCell id="UDmzE2PKUfRqwM2-v8yh-14" style="edgeStyle=orthogonalEdgeStyle;rounded=0;orthogonalLoop=1;jettySize=auto;html=1;exitX=0;exitY=0.5;exitDx=0;exitDy=0;" edge="1" parent="1" source="UDmzE2PKUfRqwM2-v8yh-12">
          <mxGeometry relative="1" as="geometry">
            <mxPoint x="60" y="360" as="targetPoint" />
          </mxGeometry>
        </mxCell>
        <mxCell id="UDmzE2PKUfRqwM2-v8yh-15" value="Нет" style="edgeLabel;html=1;align=center;verticalAlign=middle;resizable=0;points=[];fontFamily=Times New Roman;fontSize=14;" vertex="1" connectable="0" parent="UDmzE2PKUfRqwM2-v8yh-14">
          <mxGeometry x="0.0716" y="1" relative="1" as="geometry">
            <mxPoint x="2" y="-11" as="offset" />
          </mxGeometry>
        </mxCell>
        <mxCell id="UDmzE2PKUfRqwM2-v8yh-20" style="edgeStyle=orthogonalEdgeStyle;rounded=0;orthogonalLoop=1;jettySize=auto;html=1;exitX=1;exitY=0.5;exitDx=0;exitDy=0;endArrow=none;endFill=0;" edge="1" parent="1" source="UDmzE2PKUfRqwM2-v8yh-19">
          <mxGeometry relative="1" as="geometry">
            <mxPoint x="480" y="360" as="targetPoint" />
          </mxGeometry>
        </mxCell>
        <mxCell id="UDmzE2PKUfRqwM2-v8yh-22" value="1" style="edgeLabel;html=1;align=center;verticalAlign=middle;resizable=0;points=[];fontFamily=Times New Roman;fontSize=14;" vertex="1" connectable="0" parent="UDmzE2PKUfRqwM2-v8yh-20">
          <mxGeometry x="0.4085" y="1" relative="1" as="geometry">
            <mxPoint x="-8" y="-9" as="offset" />
          </mxGeometry>
        </mxCell>
        <mxCell id="UDmzE2PKUfRqwM2-v8yh-21" style="edgeStyle=orthogonalEdgeStyle;rounded=0;orthogonalLoop=1;jettySize=auto;html=1;exitX=0.5;exitY=1;exitDx=0;exitDy=0;endArrow=none;endFill=0;" edge="1" parent="1" source="UDmzE2PKUfRqwM2-v8yh-19">
          <mxGeometry relative="1" as="geometry">
            <mxPoint x="380" y="440" as="targetPoint" />
          </mxGeometry>
        </mxCell>
        <mxCell id="UDmzE2PKUfRqwM2-v8yh-23" value="2" style="edgeLabel;html=1;align=center;verticalAlign=middle;resizable=0;points=[];fontSize=14;fontFamily=Times New Roman;" vertex="1" connectable="0" parent="UDmzE2PKUfRqwM2-v8yh-21">
          <mxGeometry x="-0.0454" y="-2" relative="1" as="geometry">
            <mxPoint x="12" as="offset" />
          </mxGeometry>
        </mxCell>
        <mxCell id="UDmzE2PKUfRqwM2-v8yh-19" value="Вариант рекурсии" style="rhombus;whiteSpace=wrap;html=1;spacingLeft=14;spacingRight=14;" vertex="1" parent="1">
          <mxGeometry x="320" y="320" width="120" height="80" as="geometry" />
        </mxCell>
        <mxCell id="UDmzE2PKUfRqwM2-v8yh-30" style="edgeStyle=orthogonalEdgeStyle;rounded=0;orthogonalLoop=1;jettySize=auto;html=1;exitX=0.5;exitY=1;exitDx=0;exitDy=0;entryX=0.5;entryY=0;entryDx=0;entryDy=0;endArrow=none;endFill=0;" edge="1" parent="1" source="UDmzE2PKUfRqwM2-v8yh-24" target="UDmzE2PKUfRqwM2-v8yh-28">
          <mxGeometry relative="1" as="geometry" />
        </mxCell>
        <mxCell id="UDmzE2PKUfRqwM2-v8yh-24" value="Передача в функцию введенное значение&lt;br&gt;resursion_2(n)" style="shape=process;whiteSpace=wrap;html=1;backgroundOutline=1;" vertex="1" parent="1">
          <mxGeometry x="320" y="440" width="120" height="80" as="geometry" />
        </mxCell>
        <mxCell id="UDmzE2PKUfRqwM2-v8yh-29" style="edgeStyle=orthogonalEdgeStyle;rounded=0;orthogonalLoop=1;jettySize=auto;html=1;exitX=0.5;exitY=1;exitDx=0;exitDy=0;entryX=0.5;entryY=0;entryDx=0;entryDy=0;endArrow=none;endFill=0;" edge="1" parent="1" source="UDmzE2PKUfRqwM2-v8yh-25" target="UDmzE2PKUfRqwM2-v8yh-26">
          <mxGeometry relative="1" as="geometry" />
        </mxCell>
        <mxCell id="UDmzE2PKUfRqwM2-v8yh-25" value="Передача в функцию введенное значение&lt;br&gt;resursion_1(n)" style="shape=process;whiteSpace=wrap;html=1;backgroundOutline=1;" vertex="1" parent="1">
          <mxGeometry x="480" y="320" width="120" height="80" as="geometry" />
        </mxCell>
        <mxCell id="UDmzE2PKUfRqwM2-v8yh-34" style="edgeStyle=orthogonalEdgeStyle;rounded=0;orthogonalLoop=1;jettySize=auto;html=1;exitX=0.5;exitY=1;exitDx=0;exitDy=0;endArrow=none;endFill=0;" edge="1" parent="1" source="UDmzE2PKUfRqwM2-v8yh-26">
          <mxGeometry relative="1" as="geometry">
            <mxPoint x="540.2857142857144" y="700" as="targetPoint" />
          </mxGeometry>
        </mxCell>
        <mxCell id="UDmzE2PKUfRqwM2-v8yh-26" value="Вывод полученного значение и количества вызовов функции" style="shape=parallelogram;perimeter=parallelogramPerimeter;whiteSpace=wrap;html=1;fixedSize=1;spacingLeft=0;spacingRight=13;fontSize=12;" vertex="1" parent="1">
          <mxGeometry x="480" y="440" width="120" height="80" as="geometry" />
        </mxCell>
        <mxCell id="UDmzE2PKUfRqwM2-v8yh-28" value="Вывод полученного значение и количества вызовов функции" style="shape=parallelogram;perimeter=parallelogramPerimeter;whiteSpace=wrap;html=1;fixedSize=1;spacingLeft=0;spacingRight=13;fontSize=12;" vertex="1" parent="1">
          <mxGeometry x="320" y="560" width="120" height="80" as="geometry" />
        </mxCell>
        <mxCell id="UDmzE2PKUfRqwM2-v8yh-31" value="Конец" style="html=1;dashed=0;whiteSpace=wrap;shape=mxgraph.dfd.start" vertex="1" parent="1">
          <mxGeometry x="320" y="680" width="120" height="40" as="geometry" />
        </mxCell>
        <mxCell id="UDmzE2PKUfRqwM2-v8yh-32" value="" style="endArrow=none;html=1;rounded=0;entryX=0;entryY=0.5;entryDx=0;entryDy=0;entryPerimeter=0;" edge="1" parent="1" target="UDmzE2PKUfRqwM2-v8yh-31">
          <mxGeometry width="50" height="50" relative="1" as="geometry">
            <mxPoint x="60" y="700" as="sourcePoint" />
            <mxPoint x="320" y="550" as="targetPoint" />
          </mxGeometry>
        </mxCell>
        <mxCell id="UDmzE2PKUfRqwM2-v8yh-33" style="edgeStyle=orthogonalEdgeStyle;rounded=0;orthogonalLoop=1;jettySize=auto;html=1;exitX=0.5;exitY=1;exitDx=0;exitDy=0;entryX=0.5;entryY=0.5;entryDx=0;entryDy=-20;entryPerimeter=0;endArrow=none;endFill=0;" edge="1" parent="1" source="UDmzE2PKUfRqwM2-v8yh-28" target="UDmzE2PKUfRqwM2-v8yh-31">
          <mxGeometry relative="1" as="geometry" />
        </mxCell>
        <mxCell id="UDmzE2PKUfRqwM2-v8yh-35" value="" style="endArrow=classic;html=1;rounded=0;entryX=1;entryY=0.5;entryDx=0;entryDy=0;entryPerimeter=0;" edge="1" parent="1" target="UDmzE2PKUfRqwM2-v8yh-31">
          <mxGeometry width="50" height="50" relative="1" as="geometry">
            <mxPoint x="540" y="700" as="sourcePoint" />
            <mxPoint x="510" y="630" as="targetPoint" />
          </mxGeometry>
        </mxCell>
      </root>
    </mxGraphModel>
  </diagram>
</mxfile>
